  0
SECTION
  2
BLOCKS
  0
ENDSEC
  0
SECTION
  2
ENTITIES
  0
LINE
  8
0
 10
35.3553
 20
35.3553
 11
36.4304
 21
36.5002
  0
LINE
  8
0
 10
36.4304
 20
36.5002
 11
37.4315
 21
37.7103
  0
LINE
  8
0
 10
37.4315
 20
37.7103
 11
38.3547
 21
38.9809
  0
LINE
  8
0
 10
38.3547
 20
38.9809
 11
39.1962
 21
40.307
  0
LINE
  8
0
 10
39.1962
 20
40.307
 11
39.9528
 21
41.6833
  0
LINE
  8
0
 10
39.9528
 20
41.6833
 11
40.6215
 21
43.1043
  0
LINE
  8
0
 10
40.6215
 20
43.1043
 11
41.1997
 21
44.5646
  0
LINE
  8
0
 10
41.1997
 20
44.5646
 11
41.685
 21
46.0582
  0
LINE
  8
0
 10
41.685
 20
46.0582
 11
42.0756
 21
47.5794
  0
LINE
  8
0
 10
42.0756
 20
47.5794
 11
42.3699
 21
49.1221
  0
LINE
  8
0
 10
42.3699
 20
49.1221
 11
42.5667
 21
50.6803
  0
LINE
  8
0
 10
42.5667
 20
50.6803
 11
42.6653
 21
52.2477
  0
LINE
  8
0
 10
42.6653
 20
52.2477
 11
42.6653
 21
53.8183
  0
LINE
  8
0
 10
42.6653
 20
53.8183
 11
42.5667
 21
55.3857
  0
LINE
  8
0
 10
42.5667
 20
55.3857
 11
42.3699
 21
56.9439
  0
LINE
  8
0
 10
42.3699
 20
56.9439
 11
42.0756
 21
58.4866
  0
LINE
  8
0
 10
42.0756
 20
58.4866
 11
41.685
 21
60.0078
  0
LINE
  8
0
 10
41.685
 20
60.0078
 11
41.1997
 21
61.5015
  0
LINE
  8
0
 10
41.1997
 20
61.5015
 11
40.6215
 21
62.9617
  0
LINE
  8
0
 10
40.6215
 20
62.9617
 11
39.9528
 21
64.3828
  0
LINE
  8
0
 10
39.9528
 20
64.3828
 11
39.1962
 21
65.759
  0
LINE
  8
0
 10
39.1962
 20
65.759
 11
38.3547
 21
67.0851
  0
LINE
  8
0
 10
38.3547
 20
67.0851
 11
37.4315
 21
68.3557
  0
LINE
  8
0
 10
37.4315
 20
68.3557
 11
36.4304
 21
69.5658
  0
LINE
  8
0
 10
36.4304
 20
69.5658
 11
35.3553
 21
70.7107
  0
LINE
  8
0
 10
35.3553
 20
70.7107
 11
34.2105
 21
71.7858
  0
LINE
  8
0
 10
34.2105
 20
71.7858
 11
33.0003
 21
72.7869
  0
LINE
  8
0
 10
33.0003
 20
72.7869
 11
31.7298
 21
73.71
  0
LINE
  8
0
 10
31.7298
 20
73.71
 11
30.4037
 21
74.5515
  0
LINE
  8
0
 10
30.4037
 20
74.5515
 11
29.0274
 21
75.3082
  0
LINE
  8
0
 10
29.0274
 20
75.3082
 11
27.6064
 21
75.9769
  0
LINE
  8
0
 10
27.6064
 20
75.9769
 11
26.1461
 21
76.555
  0
LINE
  8
0
 10
26.1461
 20
76.555
 11
24.6524
 21
77.0403
  0
LINE
  8
0
 10
24.6524
 20
77.0403
 11
23.1312
 21
77.4309
  0
LINE
  8
0
 10
23.1312
 20
77.4309
 11
21.5885
 21
77.7252
  0
LINE
  8
0
 10
21.5885
 20
77.7252
 11
20.0304
 21
77.922
  0
LINE
  8
0
 10
20.0304
 20
77.922
 11
18.4629
 21
78.0207
  0
LINE
  8
0
 10
18.4629
 20
78.0207
 11
16.8924
 21
78.0207
  0
LINE
  8
0
 10
16.8924
 20
78.0207
 11
15.325
 21
77.922
  0
LINE
  8
0
 10
15.325
 20
77.922
 11
13.7668
 21
77.7252
  0
LINE
  8
0
 10
13.7668
 20
77.7252
 11
12.2241
 21
77.4309
  0
LINE
  8
0
 10
12.2241
 20
77.4309
 11
10.7029
 21
77.0403
  0
LINE
  8
0
 10
10.7029
 20
77.0403
 11
9.20922
 21
76.555
  0
LINE
  8
0
 10
9.20922
 20
76.555
 11
7.74898
 21
75.9769
  0
LINE
  8
0
 10
7.74898
 20
75.9769
 11
6.32791
 21
75.3082
  0
LINE
  8
0
 10
6.32791
 20
75.3082
 11
4.95164
 21
74.5515
  0
LINE
  8
0
 10
4.95164
 20
74.5515
 11
3.62558
 21
73.71
  0
LINE
  8
0
 10
3.62558
 20
73.71
 11
2.35499
 21
72.7869
  0
LINE
  8
0
 10
2.35499
 20
72.7869
 11
1.14487
 21
71.7858
  0
LINE
  8
0
 10
1.14487
 20
71.7858
 11
-7.10543e-15
 21
70.7107
  0
LINE
  8
0
 10
-7.10543e-15
 20
70.7107
 11
-1.14487
 21
71.7858
  0
LINE
  8
0
 10
-1.14487
 20
71.7858
 11
-2.35499
 21
72.7869
  0
LINE
  8
0
 10
-2.35499
 20
72.7869
 11
-3.62558
 21
73.71
  0
LINE
  8
0
 10
-3.62558
 20
73.71
 11
-4.95164
 21
74.5515
  0
LINE
  8
0
 10
-4.95164
 20
74.5515
 11
-6.32791
 21
75.3082
  0
LINE
  8
0
 10
-6.32791
 20
75.3082
 11
-7.74898
 21
75.9769
  0
LINE
  8
0
 10
-7.74898
 20
75.9769
 11
-9.20922
 21
76.555
  0
LINE
  8
0
 10
-9.20922
 20
76.555
 11
-10.7029
 21
77.0403
  0
LINE
  8
0
 10
-10.7029
 20
77.0403
 11
-12.2241
 21
77.4309
  0
LINE
  8
0
 10
-12.2241
 20
77.4309
 11
-13.7668
 21
77.7252
  0
LINE
  8
0
 10
-13.7668
 20
77.7252
 11
-15.325
 21
77.922
  0
LINE
  8
0
 10
-15.325
 20
77.922
 11
-16.8924
 21
78.0207
  0
LINE
  8
0
 10
-16.8924
 20
78.0207
 11
-18.4629
 21
78.0207
  0
LINE
  8
0
 10
-18.4629
 20
78.0207
 11
-20.0304
 21
77.922
  0
LINE
  8
0
 10
-20.0304
 20
77.922
 11
-21.5885
 21
77.7252
  0
LINE
  8
0
 10
-21.5885
 20
77.7252
 11
-23.1312
 21
77.4309
  0
LINE
  8
0
 10
-23.1312
 20
77.4309
 11
-24.6524
 21
77.0403
  0
LINE
  8
0
 10
-24.6524
 20
77.0403
 11
-26.1461
 21
76.555
  0
LINE
  8
0
 10
-26.1461
 20
76.555
 11
-27.6064
 21
75.9769
  0
LINE
  8
0
 10
-27.6064
 20
75.9769
 11
-29.0274
 21
75.3082
  0
LINE
  8
0
 10
-29.0274
 20
75.3082
 11
-30.4037
 21
74.5515
  0
LINE
  8
0
 10
-30.4037
 20
74.5515
 11
-31.7298
 21
73.71
  0
LINE
  8
0
 10
-31.7298
 20
73.71
 11
-33.0003
 21
72.7869
  0
LINE
  8
0
 10
-33.0003
 20
72.7869
 11
-34.2105
 21
71.7858
  0
LINE
  8
0
 10
-34.2105
 20
71.7858
 11
-35.3553
 21
70.7107
  0
LINE
  8
0
 10
-35.3553
 20
70.7107
 11
-36.4304
 21
69.5658
  0
LINE
  8
0
 10
-36.4304
 20
69.5658
 11
-37.4315
 21
68.3557
  0
LINE
  8
0
 10
-37.4315
 20
68.3557
 11
-38.3547
 21
67.0851
  0
LINE
  8
0
 10
-38.3547
 20
67.0851
 11
-39.1962
 21
65.759
  0
LINE
  8
0
 10
-39.1962
 20
65.759
 11
-39.9528
 21
64.3828
  0
LINE
  8
0
 10
-39.9528
 20
64.3828
 11
-40.6215
 21
62.9617
  0
LINE
  8
0
 10
-40.6215
 20
62.9617
 11
-41.1997
 21
61.5015
  0
LINE
  8
0
 10
-41.1997
 20
61.5015
 11
-41.685
 21
60.0078
  0
LINE
  8
0
 10
-41.685
 20
60.0078
 11
-42.0756
 21
58.4866
  0
LINE
  8
0
 10
-42.0756
 20
58.4866
 11
-42.3699
 21
56.9439
  0
LINE
  8
0
 10
-42.3699
 20
56.9439
 11
-42.5667
 21
55.3857
  0
LINE
  8
0
 10
-42.5667
 20
55.3857
 11
-42.6653
 21
53.8183
  0
LINE
  8
0
 10
-42.6653
 20
53.8183
 11
-42.6653
 21
52.2477
  0
LINE
  8
0
 10
-42.6653
 20
52.2477
 11
-42.5667
 21
50.6803
  0
LINE
  8
0
 10
-42.5667
 20
50.6803
 11
-42.3699
 21
49.1221
  0
LINE
  8
0
 10
-42.3699
 20
49.1221
 11
-42.0756
 21
47.5794
  0
LINE
  8
0
 10
-42.0756
 20
47.5794
 11
-41.685
 21
46.0582
  0
LINE
  8
0
 10
-41.685
 20
46.0582
 11
-41.1997
 21
44.5646
  0
LINE
  8
0
 10
-41.1997
 20
44.5646
 11
-40.6215
 21
43.1043
  0
LINE
  8
0
 10
-40.6215
 20
43.1043
 11
-39.9528
 21
41.6833
  0
LINE
  8
0
 10
-39.9528
 20
41.6833
 11
-39.1962
 21
40.307
  0
LINE
  8
0
 10
-39.1962
 20
40.307
 11
-38.3547
 21
38.9809
  0
LINE
  8
0
 10
-38.3547
 20
38.9809
 11
-37.4315
 21
37.7103
  0
LINE
  8
0
 10
-37.4315
 20
37.7103
 11
-36.4304
 21
36.5002
  0
LINE
  8
0
 10
-36.4304
 20
36.5002
 11
-35.3553
 21
35.3553
  0
LINE
  8
0
 10
-35.3553
 20
35.3553
 11
0
 21
0
  0
LINE
  8
0
 10
0
 20
0
 11
35.3553
 21
35.3553
  0
ENDSEC
  0
SECTION
  2
OBJECTS
  0
DICTIONARY
  0
ENDSEC
  0
EOF
