<?xml version="1.0" encoding="UTF-8" standalone="no"?>
<!-- Created with Inkscape (http://www.inkscape.org/) -->

<svg
   xmlns:dc="http://purl.org/dc/elements/1.1/"
   xmlns:cc="http://creativecommons.org/ns#"
   xmlns:rdf="http://www.w3.org/1999/02/22-rdf-syntax-ns#"
   xmlns:svg="http://www.w3.org/2000/svg"
   xmlns="http://www.w3.org/2000/svg"
   xmlns:sodipodi="http://sodipodi.sourceforge.net/DTD/sodipodi-0.dtd"
   xmlns:inkscape="http://www.inkscape.org/namespaces/inkscape"
   version="1.1"
   id="svg3699"
   width="5.3333302in"
   height="5.3333302in"
   viewBox="0 0 511.9997 511.99973"
   sodipodi:docname="design_A.svg"
   inkscape:version="0.92.2 (5c3e80d, 2017-08-06)"
   inkscape:export-filename="C:\Users\Fedie2\Pictures\Necklace\design_A.png"
   inkscape:export-xdpi="96"
   inkscape:export-ydpi="96">
  <metadata
     id="metadata3705">
    <rdf:RDF>
      <cc:Work
         rdf:about="">
        <dc:format>image/svg+xml</dc:format>
        <dc:type
           rdf:resource="http://purl.org/dc/dcmitype/StillImage" />
        <dc:title />
      </cc:Work>
    </rdf:RDF>
  </metadata>
  <defs
     id="defs3703" />
  <sodipodi:namedview
     pagecolor="#ffffff"
     bordercolor="#666666"
     borderopacity="1"
     objecttolerance="10"
     gridtolerance="10"
     guidetolerance="10"
     inkscape:pageopacity="0"
     inkscape:pageshadow="2"
     inkscape:window-width="1280"
     inkscape:window-height="777"
     id="namedview3701"
     showgrid="false"
     inkscape:zoom="2.7180718"
     inkscape:cx="146.91254"
     inkscape:cy="196.65828"
     inkscape:window-x="-8"
     inkscape:window-y="-8"
     inkscape:window-maximized="1"
     inkscape:current-layer="layer1"
     units="in"
     showguides="true"
     inkscape:guide-bbox="true"
     inkscape:measure-start="240.612,401.755"
     inkscape:measure-end="169.64,144.187" />
  <g
     inkscape:groupmode="layer"
     id="layer2"
     inkscape:label="Layer 2" />
  <g
     inkscape:groupmode="layer"
     id="layer1"
     inkscape:label="Layer 1"
     style="display:inline"
     transform="translate(0,-288.00007)">
    <g
       transform="translate(-190.83459,296.99147)"
       id="g3744" />
    <g
       id="g922"
       transform="matrix(0.61421384,0,0,0.61421384,-71.193245,263.78065)"
       style="stroke-width:1.12440634;stroke-miterlimit:4;stroke-dasharray:none">
      <path
         sodipodi:nodetypes="csccc"
         inkscape:connector-curvature="0"
         id="path46"
         d="m 337.03301,462.50216 c -6.35975,14.48566 12.78743,53.04411 13.76149,84.20803 1.13897,36.43986 -17.05393,61.16235 -13.76149,91.38367 92.99374,25.43394 151.97209,-75.38057 49.29093,-91.3813 100.02884,-26.94086 48.59974,-100.44593 -49.29093,-84.2104 z"
         style="fill:none;stroke:#000000;stroke-width:1.12440634;stroke-linecap:butt;stroke-linejoin:miter;stroke-miterlimit:4;stroke-dasharray:none;stroke-opacity:1" />
      <path
         sodipodi:nodetypes="cccc"
         inkscape:connector-curvature="0"
         id="path50"
         d="m 356.24714,472.97096 c -6.27681,16.85607 15.4222,36.49222 14.53288,64.20883 11.21091,-1.15234 56.36505,-13.59616 54.64252,-37.09205 -3.41906,-19.34242 -44.15,-27.60318 -69.1754,-27.11678 z"
         style="fill:#aaaaaa;fill-opacity:1;stroke:#000000;stroke-width:1.12440634;stroke-linecap:butt;stroke-linejoin:miter;stroke-miterlimit:4;stroke-dasharray:none;stroke-opacity:1" />
      <path
         sodipodi:nodetypes="cccc"
         inkscape:connector-curvature="0"
         id="path52"
         d="m 423.75181,591.53209 c -7.28825,32.4002 -52.22732,42.71775 -67.50467,36.62728 -5.21187,-11.5376 18.2752,-41.24847 14.53288,-69.86389 9.49117,-0.0318 53.64434,3.30133 52.97179,33.23661 z"
         style="fill:#aaaaaa;fill-opacity:1;stroke:#000000;stroke-width:1.12440634;stroke-linecap:butt;stroke-linejoin:miter;stroke-miterlimit:4;stroke-dasharray:none;stroke-opacity:1" />
    </g>
    <g
       id="g953"
       transform="matrix(0.61505592,0,0,0.61505592,13.612191,261.62715)"
       style="stroke-width:1.08391229;stroke-miterlimit:4;stroke-dasharray:none">
      <g
         transform="translate(-132.68019,-81.660904)"
         id="g912"
         style="stroke-width:1.08391229;stroke-miterlimit:4;stroke-dasharray:none">
        <ellipse
           style="fill:#ffffff;fill-opacity:1;stroke:#000000;stroke-width:1.08391229;stroke-miterlimit:4;stroke-dasharray:none;stroke-opacity:1"
           id="path4661"
           cx="318.62268"
           cy="562.55566"
           rx="5.8721671"
           ry="5.6274934" />
        <ellipse
           style="display:inline;fill:#ffffff;fill-opacity:0.93896712;stroke:#000000;stroke-width:1.08391229;stroke-miterlimit:4;stroke-dasharray:none;stroke-opacity:1"
           id="path4661-9"
           cx="318.62271"
           cy="704.22168"
           rx="5.8721671"
           ry="5.6274934" />
        <path
           id="path46-9"
           style="display:inline;fill:none;stroke:#000000;stroke-width:1.08391229;stroke-linecap:butt;stroke-linejoin:miter;stroke-miterlimit:4;stroke-dasharray:none;stroke-opacity:1"
           d="m 331.30489,546.93123 c -6.35975,14.48566 12.78743,53.04411 13.76149,84.20803 1.13897,36.43986 -17.05393,61.16235 -13.76149,91.38367 m 0,-175.5917 c -49.42051,3.46085 -74.10768,61.45368 -141.08973,84.67148 67.18364,19.81478 79.78371,74.25656 141.08973,90.92022"
           inkscape:connector-curvature="0" />
      </g>
      <g
         id="g941"
         transform="matrix(0,0.35878051,-0.35878051,0,352.06357,412.25931)"
         style="stroke-width:3.02110137;stroke-miterlimit:4;stroke-dasharray:none">
        <path
           sodipodi:nodetypes="csccc"
           inkscape:connector-curvature="0"
           id="path927"
           d="m 337.03301,462.50216 c -6.35975,14.48566 12.78743,53.04411 13.76149,84.20803 1.13897,36.43986 -17.05393,61.16235 -13.76149,91.38367 92.99374,25.43394 151.97209,-75.38057 49.29093,-91.3813 100.02884,-26.94086 48.59974,-100.44593 -49.29093,-84.2104 z"
           style="fill:#aaaaaa;fill-opacity:1;stroke:#000000;stroke-width:3.02110137;stroke-linecap:butt;stroke-linejoin:miter;stroke-miterlimit:4;stroke-dasharray:none;stroke-opacity:1" />
        <path
           sodipodi:nodetypes="cccc"
           inkscape:connector-curvature="0"
           id="path929"
           d="m 356.24714,472.97096 c -6.27681,16.85607 15.4222,36.49222 14.53288,64.20883 11.21091,-1.15234 56.36505,-13.59616 54.64252,-37.09205 -3.41906,-19.34242 -44.15,-27.60318 -69.1754,-27.11678 z"
           style="fill:#d4d4d4;fill-opacity:1;stroke:#000000;stroke-width:3.02110137;stroke-linecap:butt;stroke-linejoin:miter;stroke-miterlimit:4;stroke-dasharray:none;stroke-opacity:1" />
        <path
           sodipodi:nodetypes="cccc"
           inkscape:connector-curvature="0"
           id="path931"
           d="m 423.75181,591.53209 c -7.28825,32.4002 -52.22732,42.71775 -67.50467,36.62728 -5.21187,-11.5376 18.2752,-41.24847 14.53288,-69.86389 9.49117,-0.0318 53.64434,3.30133 52.97179,33.23661 z"
           style="fill:#d4d4d4;fill-opacity:1;stroke:#000000;stroke-width:3.02110137;stroke-linecap:butt;stroke-linejoin:miter;stroke-miterlimit:4;stroke-dasharray:none;stroke-opacity:1" />
      </g>
    </g>
  </g>
</svg>
