<?xml version="1.0" encoding="UTF-8" standalone="no"?>
<!-- Created with Inkscape (http://www.inkscape.org/) -->

<svg
   xmlns:dc="http://purl.org/dc/elements/1.1/"
   xmlns:cc="http://creativecommons.org/ns#"
   xmlns:rdf="http://www.w3.org/1999/02/22-rdf-syntax-ns#"
   xmlns:svg="http://www.w3.org/2000/svg"
   xmlns="http://www.w3.org/2000/svg"
   xmlns:sodipodi="http://sodipodi.sourceforge.net/DTD/sodipodi-0.dtd"
   xmlns:inkscape="http://www.inkscape.org/namespaces/inkscape"
   version="1.1"
   id="svg815"
   xml:space="preserve"
   width="32in"
   height="18in"
   viewBox="0 0 3072 1727.9999"
   sodipodi:docname="coasters.svg"
   inkscape:version="0.92.2 (5c3e80d, 2017-08-06)"><metadata
     id="metadata821"><rdf:RDF><cc:Work
         rdf:about=""><dc:format>image/svg+xml</dc:format><dc:type
           rdf:resource="http://purl.org/dc/dcmitype/StillImage" /><dc:title></dc:title></cc:Work></rdf:RDF></metadata><defs
     id="defs819" /><sodipodi:namedview
     pagecolor="#ffffff"
     bordercolor="#666666"
     borderopacity="1"
     objecttolerance="10"
     gridtolerance="10"
     guidetolerance="10"
     inkscape:pageopacity="0"
     inkscape:pageshadow="2"
     inkscape:window-width="1280"
     inkscape:window-height="777"
     id="namedview817"
     showgrid="false"
     inkscape:zoom="0.35474631"
     inkscape:cx="940.46351"
     inkscape:cy="961.94694"
     inkscape:window-x="-8"
     inkscape:window-y="-8"
     inkscape:window-maximized="1"
     inkscape:current-layer="g823"
     units="in" /><g
     id="g823"
     inkscape:groupmode="layer"
     inkscape:label="ink_ext_XXXXXX"
     transform="matrix(1.3333333,0,0,-1.3333333,0,1727.9999)"><g
       id="g825"
       transform="matrix(0.04099332,0,0,0.04099332,26.861215,1017.9025)"><path
         d="m 4833.5,3124.07 7.64,-297.51 -450.6,-247.07 V 434.254 l 1028.82,843.836 137.39,2331 z m -3512.89,0 -7.63,-297.51 450.59,-247.07 V 434.254 L 734.746,1278.09 597.359,3609.09 Z M 3077.05,840.855 H 2608.64 L 2284.97,6.19141 3077.05,3.01953 3869.14,6.19141 3545.47,840.855 Z m 0,574.085 -476.65,-2.57 -18,1455.84 -742.32,-341.28 -17.01,-2131.856 396.67,-351.7107 345.96,895.4377 511.35,1.191 511.36,-1.191 345.96,-895.4377 396.67,351.7107 -17.01,2131.856 -742.32,341.28 -18,-1455.84 z m 0,2402.17 -613.67,394.03 202.37,-1290.21 V 1488.04 h 822.61 v 1432.89 l 202.37,1290.21 z m 0,901.94 -670.6,498.93 670.6,1.64 670.61,-1.64 z m 0,1381.24 h -89.29 l -32.4,-0.72 h -31.68 l -30.96,-0.72 -30.96,-0.72 -30.24,-1.44 -59.04,-1.44 -28.08,-1.44 -28.08,-1.44 -27.36,-1.44 -26.64,-1.44 -52.56,-3.6 -63.36,-5.04 -62.64,-6.48 -30.24,-2.88 -30.24,-3.6 -59.76,-7.92 -58.32,-7.92 -57.6,-9.36 -55.44,-10.8 -54.72,-10.8 -51.12,-11.52 -51.12,-12.24 -51.84,-13.68 -51.84,-14.4 -51.12,-15.12 -51.84,-17.28 -52.56,-17.28 -51.84,-18.72 -52.56,-20.16 -51.84,-20.16 -51.84,-21.6 -53.28,-23.04 -51.84,-23.76 -53.28,-25.2 -52.56,-25.92 -129.65,-57.19 91.64,-594.87 1758.1,-1166.49 1758.11,1166.49 91.64,594.87 -129.65,57.19 -52.56,25.92 -53.28,25.2 -51.84,23.76 -53.28,23.04 -51.84,21.6 -51.84,20.16 -52.56,20.16 -51.84,18.72 -52.56,17.28 -51.84,17.28 -51.12,15.12 -51.84,14.4 -51.84,13.68 -51.12,12.24 -51.12,11.52 -54.72,10.8 -55.44,10.8 -57.6,9.36 -58.32,7.92 -59.76,7.92 -30.24,3.6 -30.24,2.88 -62.64,6.48 -63.36,5.04 -52.56,3.6 -26.64,1.44 -27.36,1.44 -28.08,1.44 -28.08,1.44 -59.04,1.44 -30.24,1.44 -30.96,0.72 -30.96,0.72 h -31.68 l -32.4,0.72 z M 717.285,4945.54 l 19.457,-121.99 1238.528,-840.67 -8,114.21 z m 84.789,-531.56 17.184,-107.73 1189.922,-807.68 -7.06,100.85 z M 4.75391,5758.29 1139.17,5674.29 1280.9,5038.96 2397.97,4270.81 2581.68,2982.69 1306.69,3191.88 434.223,3819.24 Z M 5436.83,4945.54 l -19.46,-121.99 -1238.53,-840.67 8,114.21 z m -84.79,-531.56 -17.19,-107.73 -1189.92,-807.68 7.06,100.85 z m 797.32,1344.31 -1134.42,-84 -141.73,-635.33 -1117.07,-768.15 -183.71,-1288.12 1274.99,209.19 872.47,627.36 429.47,1939.05"
         style="fill:#231f20;fill-opacity:1;fill-rule:evenodd;stroke:none"
         id="path827"
         inkscape:connector-curvature="0" /><path
         d="m 4833.5,3124.07 7.64,-297.51 -450.6,-247.07 V 434.254 l 1028.82,843.836 137.39,2331 z m -3512.89,0 -7.63,-297.51 450.59,-247.07 V 434.254 L 734.746,1278.09 597.359,3609.09 Z M 3077.05,840.855 H 2608.64 L 2284.97,6.19141 3077.05,3.01953 3869.14,6.19141 3545.47,840.855 Z m 0,574.085 -476.65,-2.57 -18,1455.84 -742.32,-341.28 -17.01,-2131.856 396.67,-351.7107 345.96,895.4377 511.35,1.191 511.36,-1.191 345.96,-895.4377 396.67,351.7107 -17.01,2131.856 -742.32,341.28 -18,-1455.84 z m 0,2402.17 -613.67,394.03 202.37,-1290.21 V 1488.04 h 822.61 v 1432.89 l 202.37,1290.21 z m 0,901.94 -670.6,498.93 670.6,1.64 670.61,-1.64 z m 0,1381.24 h -89.29 l -32.4,-0.72 h -31.68 l -30.96,-0.72 -30.96,-0.72 -30.24,-1.44 -59.04,-1.44 -28.08,-1.44 -28.08,-1.44 -27.36,-1.44 -26.64,-1.44 -52.56,-3.6 -63.36,-5.04 -62.64,-6.48 -30.24,-2.88 -30.24,-3.6 -59.76,-7.92 -58.32,-7.92 -57.6,-9.36 -55.44,-10.8 -54.72,-10.8 -51.12,-11.52 -51.12,-12.24 -51.84,-13.68 -51.84,-14.4 -51.12,-15.12 -51.84,-17.28 -52.56,-17.28 -51.84,-18.72 -52.56,-20.16 -51.84,-20.16 -51.84,-21.6 -53.28,-23.04 -51.84,-23.76 -53.28,-25.2 -52.56,-25.92 -129.65,-57.19 91.64,-594.87 1758.1,-1166.49 1758.11,1166.49 91.64,594.87 -129.65,57.19 -52.56,25.92 -53.28,25.2 -51.84,23.76 -53.28,23.04 -51.84,21.6 -51.84,20.16 -52.56,20.16 -51.84,18.72 -52.56,17.28 -51.84,17.28 -51.12,15.12 -51.84,14.4 -51.84,13.68 -51.12,12.24 -51.12,11.52 -54.72,10.8 -55.44,10.8 -57.6,9.36 -58.32,7.92 -59.76,7.92 -30.24,3.6 -30.24,2.88 -62.64,6.48 -63.36,5.04 -52.56,3.6 -26.64,1.44 -27.36,1.44 -28.08,1.44 -28.08,1.44 -59.04,1.44 -30.24,1.44 -30.96,0.72 -30.96,0.72 h -31.68 l -32.4,0.72 z M 717.285,4945.54 l 19.457,-121.99 1238.528,-840.67 -8,114.21 z m 84.789,-531.56 17.184,-107.73 1189.922,-807.68 -7.06,100.85 z M 4.75391,5758.29 1139.17,5674.29 1280.9,5038.96 2397.97,4270.81 2581.68,2982.69 1306.69,3191.88 434.223,3819.24 Z M 5436.83,4945.54 l -19.46,-121.99 -1238.53,-840.67 8,114.21 z m -84.79,-531.56 -17.19,-107.73 -1189.92,-807.68 7.06,100.85 z m 797.32,1344.31 -1134.42,-84 -141.73,-635.33 -1117.07,-768.15 -183.71,-1288.12 1274.99,209.19 872.47,627.36 z"
         style="fill:none;stroke:#231f20;stroke-width:2.16000009;stroke-linecap:butt;stroke-linejoin:miter;stroke-miterlimit:2.61310005;stroke-dasharray:none;stroke-opacity:1"
         id="path829"
         inkscape:connector-curvature="0" /></g><rect
       style="fill:none;fill-opacity:1;stroke:#ff0000;stroke-width:0.34764636;stroke-linecap:butt;stroke-linejoin:miter;stroke-miterlimit:4;stroke-dasharray:none;stroke-opacity:1;paint-order:normal"
       id="rect831"
       width="287.65234"
       height="287.65237"
       x="9.1738234"
       y="-989.82611"
       transform="scale(1,-1)"
       ry="26.139435"
       rx="23.968685" /><g
       transform="matrix(0.04099332,0,0,0.04099332,323.86122,1017.9025)"
       id="g837"><path
         inkscape:connector-curvature="0"
         id="path833"
         style="fill:#231f20;fill-opacity:1;fill-rule:evenodd;stroke:none"
         d="m 4833.5,3124.07 7.64,-297.51 -450.6,-247.07 V 434.254 l 1028.82,843.836 137.39,2331 z m -3512.89,0 -7.63,-297.51 450.59,-247.07 V 434.254 L 734.746,1278.09 597.359,3609.09 Z M 3077.05,840.855 H 2608.64 L 2284.97,6.19141 3077.05,3.01953 3869.14,6.19141 3545.47,840.855 Z m 0,574.085 -476.65,-2.57 -18,1455.84 -742.32,-341.28 -17.01,-2131.856 396.67,-351.7107 345.96,895.4377 511.35,1.191 511.36,-1.191 345.96,-895.4377 396.67,351.7107 -17.01,2131.856 -742.32,341.28 -18,-1455.84 z m 0,2402.17 -613.67,394.03 202.37,-1290.21 V 1488.04 h 822.61 v 1432.89 l 202.37,1290.21 z m 0,901.94 -670.6,498.93 670.6,1.64 670.61,-1.64 z m 0,1381.24 h -89.29 l -32.4,-0.72 h -31.68 l -30.96,-0.72 -30.96,-0.72 -30.24,-1.44 -59.04,-1.44 -28.08,-1.44 -28.08,-1.44 -27.36,-1.44 -26.64,-1.44 -52.56,-3.6 -63.36,-5.04 -62.64,-6.48 -30.24,-2.88 -30.24,-3.6 -59.76,-7.92 -58.32,-7.92 -57.6,-9.36 -55.44,-10.8 -54.72,-10.8 -51.12,-11.52 -51.12,-12.24 -51.84,-13.68 -51.84,-14.4 -51.12,-15.12 -51.84,-17.28 -52.56,-17.28 -51.84,-18.72 -52.56,-20.16 -51.84,-20.16 -51.84,-21.6 -53.28,-23.04 -51.84,-23.76 -53.28,-25.2 -52.56,-25.92 -129.65,-57.19 91.64,-594.87 1758.1,-1166.49 1758.11,1166.49 91.64,594.87 -129.65,57.19 -52.56,25.92 -53.28,25.2 -51.84,23.76 -53.28,23.04 -51.84,21.6 -51.84,20.16 -52.56,20.16 -51.84,18.72 -52.56,17.28 -51.84,17.28 -51.12,15.12 -51.84,14.4 -51.84,13.68 -51.12,12.24 -51.12,11.52 -54.72,10.8 -55.44,10.8 -57.6,9.36 -58.32,7.92 -59.76,7.92 -30.24,3.6 -30.24,2.88 -62.64,6.48 -63.36,5.04 -52.56,3.6 -26.64,1.44 -27.36,1.44 -28.08,1.44 -28.08,1.44 -59.04,1.44 -30.24,1.44 -30.96,0.72 -30.96,0.72 h -31.68 l -32.4,0.72 z M 717.285,4945.54 l 19.457,-121.99 1238.528,-840.67 -8,114.21 z m 84.789,-531.56 17.184,-107.73 1189.922,-807.68 -7.06,100.85 z M 4.75391,5758.29 1139.17,5674.29 1280.9,5038.96 2397.97,4270.81 2581.68,2982.69 1306.69,3191.88 434.223,3819.24 Z M 5436.83,4945.54 l -19.46,-121.99 -1238.53,-840.67 8,114.21 z m -84.79,-531.56 -17.19,-107.73 -1189.92,-807.68 7.06,100.85 z m 797.32,1344.31 -1134.42,-84 -141.73,-635.33 -1117.07,-768.15 -183.71,-1288.12 1274.99,209.19 872.47,627.36 429.47,1939.05" /><path
         inkscape:connector-curvature="0"
         id="path835"
         style="fill:none;stroke:#231f20;stroke-width:2.16000009;stroke-linecap:butt;stroke-linejoin:miter;stroke-miterlimit:2.61310005;stroke-dasharray:none;stroke-opacity:1"
         d="m 4833.5,3124.07 7.64,-297.51 -450.6,-247.07 V 434.254 l 1028.82,843.836 137.39,2331 z m -3512.89,0 -7.63,-297.51 450.59,-247.07 V 434.254 L 734.746,1278.09 597.359,3609.09 Z M 3077.05,840.855 H 2608.64 L 2284.97,6.19141 3077.05,3.01953 3869.14,6.19141 3545.47,840.855 Z m 0,574.085 -476.65,-2.57 -18,1455.84 -742.32,-341.28 -17.01,-2131.856 396.67,-351.7107 345.96,895.4377 511.35,1.191 511.36,-1.191 345.96,-895.4377 396.67,351.7107 -17.01,2131.856 -742.32,341.28 -18,-1455.84 z m 0,2402.17 -613.67,394.03 202.37,-1290.21 V 1488.04 h 822.61 v 1432.89 l 202.37,1290.21 z m 0,901.94 -670.6,498.93 670.6,1.64 670.61,-1.64 z m 0,1381.24 h -89.29 l -32.4,-0.72 h -31.68 l -30.96,-0.72 -30.96,-0.72 -30.24,-1.44 -59.04,-1.44 -28.08,-1.44 -28.08,-1.44 -27.36,-1.44 -26.64,-1.44 -52.56,-3.6 -63.36,-5.04 -62.64,-6.48 -30.24,-2.88 -30.24,-3.6 -59.76,-7.92 -58.32,-7.92 -57.6,-9.36 -55.44,-10.8 -54.72,-10.8 -51.12,-11.52 -51.12,-12.24 -51.84,-13.68 -51.84,-14.4 -51.12,-15.12 -51.84,-17.28 -52.56,-17.28 -51.84,-18.72 -52.56,-20.16 -51.84,-20.16 -51.84,-21.6 -53.28,-23.04 -51.84,-23.76 -53.28,-25.2 -52.56,-25.92 -129.65,-57.19 91.64,-594.87 1758.1,-1166.49 1758.11,1166.49 91.64,594.87 -129.65,57.19 -52.56,25.92 -53.28,25.2 -51.84,23.76 -53.28,23.04 -51.84,21.6 -51.84,20.16 -52.56,20.16 -51.84,18.72 -52.56,17.28 -51.84,17.28 -51.12,15.12 -51.84,14.4 -51.84,13.68 -51.12,12.24 -51.12,11.52 -54.72,10.8 -55.44,10.8 -57.6,9.36 -58.32,7.92 -59.76,7.92 -30.24,3.6 -30.24,2.88 -62.64,6.48 -63.36,5.04 -52.56,3.6 -26.64,1.44 -27.36,1.44 -28.08,1.44 -28.08,1.44 -59.04,1.44 -30.24,1.44 -30.96,0.72 -30.96,0.72 h -31.68 l -32.4,0.72 z M 717.285,4945.54 l 19.457,-121.99 1238.528,-840.67 -8,114.21 z m 84.789,-531.56 17.184,-107.73 1189.922,-807.68 -7.06,100.85 z M 4.75391,5758.29 1139.17,5674.29 1280.9,5038.96 2397.97,4270.81 2581.68,2982.69 1306.69,3191.88 434.223,3819.24 Z M 5436.83,4945.54 l -19.46,-121.99 -1238.53,-840.67 8,114.21 z m -84.79,-531.56 -17.19,-107.73 -1189.92,-807.68 7.06,100.85 z m 797.32,1344.31 -1134.42,-84 -141.73,-635.33 -1117.07,-768.15 -183.71,-1288.12 1274.99,209.19 872.47,627.36 z" /></g><rect
       rx="23.968685"
       ry="26.139435"
       transform="scale(1,-1)"
       y="-1286.8262"
       x="306.17383"
       height="287.65237"
       width="287.65234"
       id="rect839"
       style="fill:none;fill-opacity:1;stroke:#ff0000;stroke-width:0.34764636;stroke-linecap:butt;stroke-linejoin:miter;stroke-miterlimit:4;stroke-dasharray:none;stroke-opacity:1;paint-order:normal" /><g
       transform="matrix(0.04099332,0,0,0.04099332,617.26123,1017.9025)"
       id="g845"><path
         inkscape:connector-curvature="0"
         id="path841"
         style="fill:#231f20;fill-opacity:1;fill-rule:evenodd;stroke:none"
         d="m 4833.5,3124.07 7.64,-297.51 -450.6,-247.07 V 434.254 l 1028.82,843.836 137.39,2331 z m -3512.89,0 -7.63,-297.51 450.59,-247.07 V 434.254 L 734.746,1278.09 597.359,3609.09 Z M 3077.05,840.855 H 2608.64 L 2284.97,6.19141 3077.05,3.01953 3869.14,6.19141 3545.47,840.855 Z m 0,574.085 -476.65,-2.57 -18,1455.84 -742.32,-341.28 -17.01,-2131.856 396.67,-351.7107 345.96,895.4377 511.35,1.191 511.36,-1.191 345.96,-895.4377 396.67,351.7107 -17.01,2131.856 -742.32,341.28 -18,-1455.84 z m 0,2402.17 -613.67,394.03 202.37,-1290.21 V 1488.04 h 822.61 v 1432.89 l 202.37,1290.21 z m 0,901.94 -670.6,498.93 670.6,1.64 670.61,-1.64 z m 0,1381.24 h -89.29 l -32.4,-0.72 h -31.68 l -30.96,-0.72 -30.96,-0.72 -30.24,-1.44 -59.04,-1.44 -28.08,-1.44 -28.08,-1.44 -27.36,-1.44 -26.64,-1.44 -52.56,-3.6 -63.36,-5.04 -62.64,-6.48 -30.24,-2.88 -30.24,-3.6 -59.76,-7.92 -58.32,-7.92 -57.6,-9.36 -55.44,-10.8 -54.72,-10.8 -51.12,-11.52 -51.12,-12.24 -51.84,-13.68 -51.84,-14.4 -51.12,-15.12 -51.84,-17.28 -52.56,-17.28 -51.84,-18.72 -52.56,-20.16 -51.84,-20.16 -51.84,-21.6 -53.28,-23.04 -51.84,-23.76 -53.28,-25.2 -52.56,-25.92 -129.65,-57.19 91.64,-594.87 1758.1,-1166.49 1758.11,1166.49 91.64,594.87 -129.65,57.19 -52.56,25.92 -53.28,25.2 -51.84,23.76 -53.28,23.04 -51.84,21.6 -51.84,20.16 -52.56,20.16 -51.84,18.72 -52.56,17.28 -51.84,17.28 -51.12,15.12 -51.84,14.4 -51.84,13.68 -51.12,12.24 -51.12,11.52 -54.72,10.8 -55.44,10.8 -57.6,9.36 -58.32,7.92 -59.76,7.92 -30.24,3.6 -30.24,2.88 -62.64,6.48 -63.36,5.04 -52.56,3.6 -26.64,1.44 -27.36,1.44 -28.08,1.44 -28.08,1.44 -59.04,1.44 -30.24,1.44 -30.96,0.72 -30.96,0.72 h -31.68 l -32.4,0.72 z M 717.285,4945.54 l 19.457,-121.99 1238.528,-840.67 -8,114.21 z m 84.789,-531.56 17.184,-107.73 1189.922,-807.68 -7.06,100.85 z M 4.75391,5758.29 1139.17,5674.29 1280.9,5038.96 2397.97,4270.81 2581.68,2982.69 1306.69,3191.88 434.223,3819.24 Z M 5436.83,4945.54 l -19.46,-121.99 -1238.53,-840.67 8,114.21 z m -84.79,-531.56 -17.19,-107.73 -1189.92,-807.68 7.06,100.85 z m 797.32,1344.31 -1134.42,-84 -141.73,-635.33 -1117.07,-768.15 -183.71,-1288.12 1274.99,209.19 872.47,627.36 429.47,1939.05" /><path
         inkscape:connector-curvature="0"
         id="path843"
         style="fill:none;stroke:#231f20;stroke-width:2.16000009;stroke-linecap:butt;stroke-linejoin:miter;stroke-miterlimit:2.61310005;stroke-dasharray:none;stroke-opacity:1"
         d="m 4833.5,3124.07 7.64,-297.51 -450.6,-247.07 V 434.254 l 1028.82,843.836 137.39,2331 z m -3512.89,0 -7.63,-297.51 450.59,-247.07 V 434.254 L 734.746,1278.09 597.359,3609.09 Z M 3077.05,840.855 H 2608.64 L 2284.97,6.19141 3077.05,3.01953 3869.14,6.19141 3545.47,840.855 Z m 0,574.085 -476.65,-2.57 -18,1455.84 -742.32,-341.28 -17.01,-2131.856 396.67,-351.7107 345.96,895.4377 511.35,1.191 511.36,-1.191 345.96,-895.4377 396.67,351.7107 -17.01,2131.856 -742.32,341.28 -18,-1455.84 z m 0,2402.17 -613.67,394.03 202.37,-1290.21 V 1488.04 h 822.61 v 1432.89 l 202.37,1290.21 z m 0,901.94 -670.6,498.93 670.6,1.64 670.61,-1.64 z m 0,1381.24 h -89.29 l -32.4,-0.72 h -31.68 l -30.96,-0.72 -30.96,-0.72 -30.24,-1.44 -59.04,-1.44 -28.08,-1.44 -28.08,-1.44 -27.36,-1.44 -26.64,-1.44 -52.56,-3.6 -63.36,-5.04 -62.64,-6.48 -30.24,-2.88 -30.24,-3.6 -59.76,-7.92 -58.32,-7.92 -57.6,-9.36 -55.44,-10.8 -54.72,-10.8 -51.12,-11.52 -51.12,-12.24 -51.84,-13.68 -51.84,-14.4 -51.12,-15.12 -51.84,-17.28 -52.56,-17.28 -51.84,-18.72 -52.56,-20.16 -51.84,-20.16 -51.84,-21.6 -53.28,-23.04 -51.84,-23.76 -53.28,-25.2 -52.56,-25.92 -129.65,-57.19 91.64,-594.87 1758.1,-1166.49 1758.11,1166.49 91.64,594.87 -129.65,57.19 -52.56,25.92 -53.28,25.2 -51.84,23.76 -53.28,23.04 -51.84,21.6 -51.84,20.16 -52.56,20.16 -51.84,18.72 -52.56,17.28 -51.84,17.28 -51.12,15.12 -51.84,14.4 -51.84,13.68 -51.12,12.24 -51.12,11.52 -54.72,10.8 -55.44,10.8 -57.6,9.36 -58.32,7.92 -59.76,7.92 -30.24,3.6 -30.24,2.88 -62.64,6.48 -63.36,5.04 -52.56,3.6 -26.64,1.44 -27.36,1.44 -28.08,1.44 -28.08,1.44 -59.04,1.44 -30.24,1.44 -30.96,0.72 -30.96,0.72 h -31.68 l -32.4,0.72 z M 717.285,4945.54 l 19.457,-121.99 1238.528,-840.67 -8,114.21 z m 84.789,-531.56 17.184,-107.73 1189.922,-807.68 -7.06,100.85 z M 4.75391,5758.29 1139.17,5674.29 1280.9,5038.96 2397.97,4270.81 2581.68,2982.69 1306.69,3191.88 434.223,3819.24 Z M 5436.83,4945.54 l -19.46,-121.99 -1238.53,-840.67 8,114.21 z m -84.79,-531.56 -17.19,-107.73 -1189.92,-807.68 7.06,100.85 z m 797.32,1344.31 -1134.42,-84 -141.73,-635.33 -1117.07,-768.15 -183.71,-1288.12 1274.99,209.19 872.47,627.36 z" /></g><rect
       rx="23.968685"
       ry="26.139435"
       transform="scale(1,-1)"
       y="-1286.8262"
       x="599.57385"
       height="287.65237"
       width="287.65234"
       id="rect847"
       style="fill:none;fill-opacity:1;stroke:#ff0000;stroke-width:0.34764636;stroke-linecap:butt;stroke-linejoin:miter;stroke-miterlimit:4;stroke-dasharray:none;stroke-opacity:1;paint-order:normal" /><g
       id="g853"
       transform="matrix(0.04099332,0,0,0.04099332,914.26123,1017.9025)"><path
         d="m 4833.5,3124.07 7.64,-297.51 -450.6,-247.07 V 434.254 l 1028.82,843.836 137.39,2331 z m -3512.89,0 -7.63,-297.51 450.59,-247.07 V 434.254 L 734.746,1278.09 597.359,3609.09 Z M 3077.05,840.855 H 2608.64 L 2284.97,6.19141 3077.05,3.01953 3869.14,6.19141 3545.47,840.855 Z m 0,574.085 -476.65,-2.57 -18,1455.84 -742.32,-341.28 -17.01,-2131.856 396.67,-351.7107 345.96,895.4377 511.35,1.191 511.36,-1.191 345.96,-895.4377 396.67,351.7107 -17.01,2131.856 -742.32,341.28 -18,-1455.84 z m 0,2402.17 -613.67,394.03 202.37,-1290.21 V 1488.04 h 822.61 v 1432.89 l 202.37,1290.21 z m 0,901.94 -670.6,498.93 670.6,1.64 670.61,-1.64 z m 0,1381.24 h -89.29 l -32.4,-0.72 h -31.68 l -30.96,-0.72 -30.96,-0.72 -30.24,-1.44 -59.04,-1.44 -28.08,-1.44 -28.08,-1.44 -27.36,-1.44 -26.64,-1.44 -52.56,-3.6 -63.36,-5.04 -62.64,-6.48 -30.24,-2.88 -30.24,-3.6 -59.76,-7.92 -58.32,-7.92 -57.6,-9.36 -55.44,-10.8 -54.72,-10.8 -51.12,-11.52 -51.12,-12.24 -51.84,-13.68 -51.84,-14.4 -51.12,-15.12 -51.84,-17.28 -52.56,-17.28 -51.84,-18.72 -52.56,-20.16 -51.84,-20.16 -51.84,-21.6 -53.28,-23.04 -51.84,-23.76 -53.28,-25.2 -52.56,-25.92 -129.65,-57.19 91.64,-594.87 1758.1,-1166.49 1758.11,1166.49 91.64,594.87 -129.65,57.19 -52.56,25.92 -53.28,25.2 -51.84,23.76 -53.28,23.04 -51.84,21.6 -51.84,20.16 -52.56,20.16 -51.84,18.72 -52.56,17.28 -51.84,17.28 -51.12,15.12 -51.84,14.4 -51.84,13.68 -51.12,12.24 -51.12,11.52 -54.72,10.8 -55.44,10.8 -57.6,9.36 -58.32,7.92 -59.76,7.92 -30.24,3.6 -30.24,2.88 -62.64,6.48 -63.36,5.04 -52.56,3.6 -26.64,1.44 -27.36,1.44 -28.08,1.44 -28.08,1.44 -59.04,1.44 -30.24,1.44 -30.96,0.72 -30.96,0.72 h -31.68 l -32.4,0.72 z M 717.285,4945.54 l 19.457,-121.99 1238.528,-840.67 -8,114.21 z m 84.789,-531.56 17.184,-107.73 1189.922,-807.68 -7.06,100.85 z M 4.75391,5758.29 1139.17,5674.29 1280.9,5038.96 2397.97,4270.81 2581.68,2982.69 1306.69,3191.88 434.223,3819.24 Z M 5436.83,4945.54 l -19.46,-121.99 -1238.53,-840.67 8,114.21 z m -84.79,-531.56 -17.19,-107.73 -1189.92,-807.68 7.06,100.85 z m 797.32,1344.31 -1134.42,-84 -141.73,-635.33 -1117.07,-768.15 -183.71,-1288.12 1274.99,209.19 872.47,627.36 429.47,1939.05"
         style="fill:#231f20;fill-opacity:1;fill-rule:evenodd;stroke:none"
         id="path849"
         inkscape:connector-curvature="0" /><path
         d="m 4833.5,3124.07 7.64,-297.51 -450.6,-247.07 V 434.254 l 1028.82,843.836 137.39,2331 z m -3512.89,0 -7.63,-297.51 450.59,-247.07 V 434.254 L 734.746,1278.09 597.359,3609.09 Z M 3077.05,840.855 H 2608.64 L 2284.97,6.19141 3077.05,3.01953 3869.14,6.19141 3545.47,840.855 Z m 0,574.085 -476.65,-2.57 -18,1455.84 -742.32,-341.28 -17.01,-2131.856 396.67,-351.7107 345.96,895.4377 511.35,1.191 511.36,-1.191 345.96,-895.4377 396.67,351.7107 -17.01,2131.856 -742.32,341.28 -18,-1455.84 z m 0,2402.17 -613.67,394.03 202.37,-1290.21 V 1488.04 h 822.61 v 1432.89 l 202.37,1290.21 z m 0,901.94 -670.6,498.93 670.6,1.64 670.61,-1.64 z m 0,1381.24 h -89.29 l -32.4,-0.72 h -31.68 l -30.96,-0.72 -30.96,-0.72 -30.24,-1.44 -59.04,-1.44 -28.08,-1.44 -28.08,-1.44 -27.36,-1.44 -26.64,-1.44 -52.56,-3.6 -63.36,-5.04 -62.64,-6.48 -30.24,-2.88 -30.24,-3.6 -59.76,-7.92 -58.32,-7.92 -57.6,-9.36 -55.44,-10.8 -54.72,-10.8 -51.12,-11.52 -51.12,-12.24 -51.84,-13.68 -51.84,-14.4 -51.12,-15.12 -51.84,-17.28 -52.56,-17.28 -51.84,-18.72 -52.56,-20.16 -51.84,-20.16 -51.84,-21.6 -53.28,-23.04 -51.84,-23.76 -53.28,-25.2 -52.56,-25.92 -129.65,-57.19 91.64,-594.87 1758.1,-1166.49 1758.11,1166.49 91.64,594.87 -129.65,57.19 -52.56,25.92 -53.28,25.2 -51.84,23.76 -53.28,23.04 -51.84,21.6 -51.84,20.16 -52.56,20.16 -51.84,18.72 -52.56,17.28 -51.84,17.28 -51.12,15.12 -51.84,14.4 -51.84,13.68 -51.12,12.24 -51.12,11.52 -54.72,10.8 -55.44,10.8 -57.6,9.36 -58.32,7.92 -59.76,7.92 -30.24,3.6 -30.24,2.88 -62.64,6.48 -63.36,5.04 -52.56,3.6 -26.64,1.44 -27.36,1.44 -28.08,1.44 -28.08,1.44 -59.04,1.44 -30.24,1.44 -30.96,0.72 -30.96,0.72 h -31.68 l -32.4,0.72 z M 717.285,4945.54 l 19.457,-121.99 1238.528,-840.67 -8,114.21 z m 84.789,-531.56 17.184,-107.73 1189.922,-807.68 -7.06,100.85 z M 4.75391,5758.29 1139.17,5674.29 1280.9,5038.96 2397.97,4270.81 2581.68,2982.69 1306.69,3191.88 434.223,3819.24 Z M 5436.83,4945.54 l -19.46,-121.99 -1238.53,-840.67 8,114.21 z m -84.79,-531.56 -17.19,-107.73 -1189.92,-807.68 7.06,100.85 z m 797.32,1344.31 -1134.42,-84 -141.73,-635.33 -1117.07,-768.15 -183.71,-1288.12 1274.99,209.19 872.47,627.36 z"
         style="fill:none;stroke:#231f20;stroke-width:2.16000009;stroke-linecap:butt;stroke-linejoin:miter;stroke-miterlimit:2.61310005;stroke-dasharray:none;stroke-opacity:1"
         id="path851"
         inkscape:connector-curvature="0" /></g><rect
       style="fill:none;fill-opacity:1;stroke:#ff0000;stroke-width:0.34764636;stroke-linecap:butt;stroke-linejoin:miter;stroke-miterlimit:4;stroke-dasharray:none;stroke-opacity:1;paint-order:normal"
       id="rect855"
       width="287.65234"
       height="287.65237"
       x="896.57385"
       y="-1286.8262"
       transform="scale(1,-1)"
       ry="26.139435"
       rx="23.968685" /><g
       id="layer1"
       inkscape:label="1"
       transform="matrix(1.2332305,0,0,-1.2332305,-5.4742544,1004.8765)"><g
         id="g1574"><path
           d="M 32.5063,39.0055 86.1352,15.8496 27.6859,98.6223 32.5063,39.0055"
           style="fill:none;fill-opacity:1;fill-rule:evenodd;stroke:none;stroke-width:0.1"
           id="path871"
           inkscape:connector-curvature="0"
           transform="matrix(1.3333333,0,0,-1.3333333,0,257.33333)" /><path
           d="m 172.246,169.352 -12.325,-16.532 -37.797,-11.169 -1.807,-11.551 34.454,8.869 -0.876,-6.898 -34.839,-9.471 -0.547,-7.281 34.016,8.541 -0.767,-7.226 -30.894,-8.103 c -3.287,-0.821 -6.355,-2.682 -9.312,-5.528 L 96.2137,89.425 80.7113,103.988 c -2.3558,2.135 -5.0398,3.722 -8.1074,4.707 l -30.1824,9.197 -0.8762,7.227 32.8664,-9.635 -1.2054,8.102 -33.743,10.237 -0.8762,6.678 33.8516,-9.963 -1.368,11.442 -37.6332,11.441 -12.9277,16.863 6.9023,-58.413 67.7609,-96.2952 68.966,94.4882 z M 114.455,64.9 103.883,86.2508 148.199,99.4984 Z M 43.3523,101.031 87.9426,86.8527 77.3699,64.9 43.3523,101.031"
           style="fill:none;fill-opacity:1;fill-rule:evenodd;stroke:none;stroke-width:0.1"
           id="path873"
           inkscape:connector-curvature="0"
           transform="matrix(1.3333333,0,0,-1.3333333,0,257.33333)" /><path
           d="m 158.113,37.8016 5.751,59.8898 -58.776,-81.568 53.025,21.6782"
           style="fill:none;fill-opacity:1;fill-rule:evenodd;stroke:none;stroke-width:0.1"
           id="path875"
           inkscape:connector-curvature="0"
           transform="matrix(1.3333333,0,0,-1.3333333,0,257.33333)" /><path
           d="m 82.5188,112.144 13.5304,-13.2479 12.9828,12.3719 10.845,65.036 -14.789,-26.496 H 88.8184 L 73.1523,177.18 Z m 21.6922,26.77 -7.559,-23.759 -7.8336,23.759 h 15.3926"
           style="fill:none;fill-opacity:1;fill-rule:evenodd;stroke:none;stroke-width:0.1"
           id="path877"
           inkscape:connector-curvature="0"
           transform="matrix(1.3333333,0,0,-1.3333333,0,257.33333)" /><g
           id="g879"
           transform="matrix(0.13337466,0,0,-0.13329146,0,257.33333)"
           style="fill:#000000;fill-opacity:1"><path
             d="M 1580.63,378.134 1050.55,161.285 1638.13,977.22 Z"
             style="fill:#000000;fill-opacity:1;stroke:#231f20;stroke-width:15.2038002;stroke-linecap:round;stroke-linejoin:round;stroke-miterlimit:2.61310005;stroke-dasharray:none;stroke-opacity:1"
             id="path881"
             inkscape:connector-curvature="0" /></g><g
           id="g887"
           transform="matrix(0.13337466,0,0,-0.13329146,0,257.33333)"
           style="fill:#000000;fill-opacity:1"><path
             d="m 824.929,1121.79 -93.635,650.57 156.611,-273.81 H 1050.55 L 1198.4,1763.6 1089.98,1113.03 960.191,989.271 Z"
             style="fill:#000000;fill-opacity:1;stroke:#231f20;stroke-width:15.2038002;stroke-linecap:round;stroke-linejoin:round;stroke-miterlimit:2.61310005;stroke-dasharray:none;stroke-opacity:1"
             id="path889"
             inkscape:connector-curvature="0" /></g><g
           id="g895"
           transform="matrix(0.13337466,0,0,-0.13329146,0,257.33333)"
           style="fill:#000000;fill-opacity:1"><path
             d="M 861.082,158.546 276.773,986.532 324.961,390.177 Z"
             style="fill:#000000;fill-opacity:1;stroke:#231f20;stroke-width:15.2038002;stroke-linecap:round;stroke-linejoin:round;stroke-miterlimit:2.61310005;stroke-dasharray:none;stroke-opacity:1"
             id="path897"
             inkscape:connector-curvature="0" /></g><path
           inkscape:connector-curvature="0"
           id="path905"
           style="fill:#000000;fill-opacity:1;stroke:#231f20;stroke-width:1.52037692;stroke-linecap:round;stroke-linejoin:round;stroke-miterlimit:2.61310005;stroke-dasharray:none;stroke-opacity:1"
           d="m 159.92056,152.819 -37.79671,-11.16849 -1.80756,-11.55137 34.45467,8.86921 -0.87627,-6.89683 -34.83879,-9.47103 -0.54817,-7.28171 34.01754,8.54132 -0.76724,-7.22573 -30.89457,-8.10346 c -3.28702,-0.82074 -6.35497,-2.68216 -9.31189,-5.52826 L 96.213317,89.425012 80.711013,103.98734 c -2.35583,2.13533 -5.039762,3.72283 -8.107313,4.70752 l -30.182353,9.19711 -0.876172,7.22673 32.866285,-9.63497 -1.205473,8.10245 -33.742857,10.23679 -0.876172,6.6779 33.851491,-9.96287 -1.368024,11.4424 -37.633063,11.44041 -12.927706,16.8627 6.902339,-58.41265 67.760699,-96.295052 68.966176,94.488622 8.10651,59.28738 z"
           transform="matrix(1.3333333,0,0,-1.3333333,0,257.33333)" /><g
           id="g883"
           transform="matrix(0.13337466,0,0,-0.13329146,5.9273024e-4,257.33321)"
           style="fill:#ffffff;fill-opacity:1"><path
             d="M 1041.78,1389.57 H 887.905 l 78.312,-237.66 z"
             style="fill:#ffffff;fill-opacity:1;stroke:#231f20;stroke-width:15.2038002;stroke-linecap:round;stroke-linejoin:round;stroke-miterlimit:2.61310005;stroke-dasharray:none;stroke-opacity:1"
             id="path885"
             inkscape:connector-curvature="0" /></g><g
           style="fill:#ffffff;fill-opacity:1"
           transform="translate(0.80217068)"
           id="g1543"><g
             style="fill:#ffffff;fill-opacity:1"
             transform="matrix(0.13337466,0,0,-0.13329146,0.00107879,257.33321)"
             id="g891"><path
               inkscape:connector-curvature="0"
               id="path893"
               style="fill:#ffffff;fill-opacity:1;stroke:#231f20;stroke-width:15.2038002;stroke-linecap:round;stroke-linejoin:round;stroke-miterlimit:2.61310005;stroke-dasharray:none;stroke-opacity:1"
               d="M 433.388,1010.63 773.457,649.204 879.15,868.8 Z" /></g><g
             style="fill:#ffffff;fill-opacity:1"
             transform="matrix(0.13337466,0,0,-0.13329146,0.00107879,257.33321)"
             id="g899"><path
               inkscape:connector-curvature="0"
               id="path901"
               style="fill:#ffffff;fill-opacity:1;stroke:#231f20;stroke-width:15.2038002;stroke-linecap:round;stroke-linejoin:round;stroke-miterlimit:2.61310005;stroke-dasharray:none;stroke-opacity:1"
               d="M 1038.5,862.778 1481.52,995.296 1144.19,649.204 Z" /></g></g></g></g><rect
       rx="23.968685"
       ry="26.139435"
       transform="scale(1,-1)"
       y="-1286.8262"
       x="9.1738234"
       height="287.65237"
       width="287.65234"
       id="rect1674"
       style="fill:none;fill-opacity:1;stroke:#ff0000;stroke-width:0.34764636;stroke-linecap:butt;stroke-linejoin:miter;stroke-miterlimit:4;stroke-dasharray:none;stroke-opacity:1;paint-order:normal" /><rect
       rx="23.968685"
       ry="26.139435"
       transform="scale(1,-1)"
       y="-989.82611"
       x="306.17383"
       height="287.65237"
       width="287.65234"
       id="rect1676"
       style="fill:none;fill-opacity:1;stroke:#ff0000;stroke-width:0.34764636;stroke-linecap:butt;stroke-linejoin:miter;stroke-miterlimit:4;stroke-dasharray:none;stroke-opacity:1;paint-order:normal" /><g
       transform="matrix(1.2332305,0,0,-1.2332305,291.52575,1004.8765)"
       inkscape:label="1"
       id="g1716"><g
         id="g1714"><path
           transform="matrix(1.3333333,0,0,-1.3333333,0,257.33333)"
           inkscape:connector-curvature="0"
           id="path1678"
           style="fill:none;fill-opacity:1;fill-rule:evenodd;stroke:none;stroke-width:0.1"
           d="M 32.5063,39.0055 86.1352,15.8496 27.6859,98.6223 32.5063,39.0055" /><path
           transform="matrix(1.3333333,0,0,-1.3333333,0,257.33333)"
           inkscape:connector-curvature="0"
           id="path1680"
           style="fill:none;fill-opacity:1;fill-rule:evenodd;stroke:none;stroke-width:0.1"
           d="m 172.246,169.352 -12.325,-16.532 -37.797,-11.169 -1.807,-11.551 34.454,8.869 -0.876,-6.898 -34.839,-9.471 -0.547,-7.281 34.016,8.541 -0.767,-7.226 -30.894,-8.103 c -3.287,-0.821 -6.355,-2.682 -9.312,-5.528 L 96.2137,89.425 80.7113,103.988 c -2.3558,2.135 -5.0398,3.722 -8.1074,4.707 l -30.1824,9.197 -0.8762,7.227 32.8664,-9.635 -1.2054,8.102 -33.743,10.237 -0.8762,6.678 33.8516,-9.963 -1.368,11.442 -37.6332,11.441 -12.9277,16.863 6.9023,-58.413 67.7609,-96.2952 68.966,94.4882 z M 114.455,64.9 103.883,86.2508 148.199,99.4984 Z M 43.3523,101.031 87.9426,86.8527 77.3699,64.9 43.3523,101.031" /><path
           transform="matrix(1.3333333,0,0,-1.3333333,0,257.33333)"
           inkscape:connector-curvature="0"
           id="path1682"
           style="fill:none;fill-opacity:1;fill-rule:evenodd;stroke:none;stroke-width:0.1"
           d="m 158.113,37.8016 5.751,59.8898 -58.776,-81.568 53.025,21.6782" /><path
           transform="matrix(1.3333333,0,0,-1.3333333,0,257.33333)"
           inkscape:connector-curvature="0"
           id="path1684"
           style="fill:none;fill-opacity:1;fill-rule:evenodd;stroke:none;stroke-width:0.1"
           d="m 82.5188,112.144 13.5304,-13.2479 12.9828,12.3719 10.845,65.036 -14.789,-26.496 H 88.8184 L 73.1523,177.18 Z m 21.6922,26.77 -7.559,-23.759 -7.8336,23.759 h 15.3926" /><g
           style="fill:#000000;fill-opacity:1"
           transform="matrix(0.13337466,0,0,-0.13329146,0,257.33333)"
           id="g1688"><path
             inkscape:connector-curvature="0"
             id="path1686"
             style="fill:#000000;fill-opacity:1;stroke:#231f20;stroke-width:15.2038002;stroke-linecap:round;stroke-linejoin:round;stroke-miterlimit:2.61310005;stroke-dasharray:none;stroke-opacity:1"
             d="M 1580.63,378.134 1050.55,161.285 1638.13,977.22 Z" /></g><g
           style="fill:#000000;fill-opacity:1"
           transform="matrix(0.13337466,0,0,-0.13329146,0,257.33333)"
           id="g1692"><path
             inkscape:connector-curvature="0"
             id="path1690"
             style="fill:#000000;fill-opacity:1;stroke:#231f20;stroke-width:15.2038002;stroke-linecap:round;stroke-linejoin:round;stroke-miterlimit:2.61310005;stroke-dasharray:none;stroke-opacity:1"
             d="m 824.929,1121.79 -93.635,650.57 156.611,-273.81 H 1050.55 L 1198.4,1763.6 1089.98,1113.03 960.191,989.271 Z" /></g><g
           style="fill:#000000;fill-opacity:1"
           transform="matrix(0.13337466,0,0,-0.13329146,0,257.33333)"
           id="g1696"><path
             inkscape:connector-curvature="0"
             id="path1694"
             style="fill:#000000;fill-opacity:1;stroke:#231f20;stroke-width:15.2038002;stroke-linecap:round;stroke-linejoin:round;stroke-miterlimit:2.61310005;stroke-dasharray:none;stroke-opacity:1"
             d="M 861.082,158.546 276.773,986.532 324.961,390.177 Z" /></g><path
           transform="matrix(1.3333333,0,0,-1.3333333,0,257.33333)"
           d="m 159.92056,152.819 -37.79671,-11.16849 -1.80756,-11.55137 34.45467,8.86921 -0.87627,-6.89683 -34.83879,-9.47103 -0.54817,-7.28171 34.01754,8.54132 -0.76724,-7.22573 -30.89457,-8.10346 c -3.28702,-0.82074 -6.35497,-2.68216 -9.31189,-5.52826 L 96.213317,89.425012 80.711013,103.98734 c -2.35583,2.13533 -5.039762,3.72283 -8.107313,4.70752 l -30.182353,9.19711 -0.876172,7.22673 32.866285,-9.63497 -1.205473,8.10245 -33.742857,10.23679 -0.876172,6.6779 33.851491,-9.96287 -1.368024,11.4424 -37.633063,11.44041 -12.927706,16.8627 6.902339,-58.41265 67.760699,-96.295052 68.966176,94.488622 8.10651,59.28738 z"
           style="fill:#000000;fill-opacity:1;stroke:#231f20;stroke-width:1.52037692;stroke-linecap:round;stroke-linejoin:round;stroke-miterlimit:2.61310005;stroke-dasharray:none;stroke-opacity:1"
           id="path1698"
           inkscape:connector-curvature="0" /><g
           style="fill:#ffffff;fill-opacity:1"
           transform="matrix(0.13337466,0,0,-0.13329146,5.9273024e-4,257.33321)"
           id="g1702"><path
             inkscape:connector-curvature="0"
             id="path1700"
             style="fill:#ffffff;fill-opacity:1;stroke:#231f20;stroke-width:15.2038002;stroke-linecap:round;stroke-linejoin:round;stroke-miterlimit:2.61310005;stroke-dasharray:none;stroke-opacity:1"
             d="M 1041.78,1389.57 H 887.905 l 78.312,-237.66 z" /></g><g
           id="g1712"
           transform="translate(0.80217068)"
           style="fill:#ffffff;fill-opacity:1"><g
             id="g1706"
             transform="matrix(0.13337466,0,0,-0.13329146,0.00107879,257.33321)"
             style="fill:#ffffff;fill-opacity:1"><path
               d="M 433.388,1010.63 773.457,649.204 879.15,868.8 Z"
               style="fill:#ffffff;fill-opacity:1;stroke:#231f20;stroke-width:15.2038002;stroke-linecap:round;stroke-linejoin:round;stroke-miterlimit:2.61310005;stroke-dasharray:none;stroke-opacity:1"
               id="path1704"
               inkscape:connector-curvature="0" /></g><g
             id="g1710"
             transform="matrix(0.13337466,0,0,-0.13329146,0.00107879,257.33321)"
             style="fill:#ffffff;fill-opacity:1"><path
               d="M 1038.5,862.778 1481.52,995.296 1144.19,649.204 Z"
               style="fill:#ffffff;fill-opacity:1;stroke:#231f20;stroke-width:15.2038002;stroke-linecap:round;stroke-linejoin:round;stroke-miterlimit:2.61310005;stroke-dasharray:none;stroke-opacity:1"
               id="path1708"
               inkscape:connector-curvature="0" /></g></g></g></g><rect
       style="fill:none;fill-opacity:1;stroke:#ff0000;stroke-width:0.34764636;stroke-linecap:butt;stroke-linejoin:miter;stroke-miterlimit:4;stroke-dasharray:none;stroke-opacity:1;paint-order:normal"
       id="rect1718"
       width="287.65234"
       height="287.65237"
       x="599.57385"
       y="-989.82611"
       transform="scale(1,-1)"
       ry="26.139435"
       rx="23.968685" /><g
       id="g1758"
       inkscape:label="1"
       transform="matrix(1.2332305,0,0,-1.2332305,584.92576,1004.8765)"><g
         id="g1756"><path
           d="M 32.5063,39.0055 86.1352,15.8496 27.6859,98.6223 32.5063,39.0055"
           style="fill:none;fill-opacity:1;fill-rule:evenodd;stroke:none;stroke-width:0.1"
           id="path1720"
           inkscape:connector-curvature="0"
           transform="matrix(1.3333333,0,0,-1.3333333,0,257.33333)" /><path
           d="m 172.246,169.352 -12.325,-16.532 -37.797,-11.169 -1.807,-11.551 34.454,8.869 -0.876,-6.898 -34.839,-9.471 -0.547,-7.281 34.016,8.541 -0.767,-7.226 -30.894,-8.103 c -3.287,-0.821 -6.355,-2.682 -9.312,-5.528 L 96.2137,89.425 80.7113,103.988 c -2.3558,2.135 -5.0398,3.722 -8.1074,4.707 l -30.1824,9.197 -0.8762,7.227 32.8664,-9.635 -1.2054,8.102 -33.743,10.237 -0.8762,6.678 33.8516,-9.963 -1.368,11.442 -37.6332,11.441 -12.9277,16.863 6.9023,-58.413 67.7609,-96.2952 68.966,94.4882 z M 114.455,64.9 103.883,86.2508 148.199,99.4984 Z M 43.3523,101.031 87.9426,86.8527 77.3699,64.9 43.3523,101.031"
           style="fill:none;fill-opacity:1;fill-rule:evenodd;stroke:none;stroke-width:0.1"
           id="path1722"
           inkscape:connector-curvature="0"
           transform="matrix(1.3333333,0,0,-1.3333333,0,257.33333)" /><path
           d="m 158.113,37.8016 5.751,59.8898 -58.776,-81.568 53.025,21.6782"
           style="fill:none;fill-opacity:1;fill-rule:evenodd;stroke:none;stroke-width:0.1"
           id="path1724"
           inkscape:connector-curvature="0"
           transform="matrix(1.3333333,0,0,-1.3333333,0,257.33333)" /><path
           d="m 82.5188,112.144 13.5304,-13.2479 12.9828,12.3719 10.845,65.036 -14.789,-26.496 H 88.8184 L 73.1523,177.18 Z m 21.6922,26.77 -7.559,-23.759 -7.8336,23.759 h 15.3926"
           style="fill:none;fill-opacity:1;fill-rule:evenodd;stroke:none;stroke-width:0.1"
           id="path1726"
           inkscape:connector-curvature="0"
           transform="matrix(1.3333333,0,0,-1.3333333,0,257.33333)" /><g
           id="g1730"
           transform="matrix(0.13337466,0,0,-0.13329146,0,257.33333)"
           style="fill:#000000;fill-opacity:1"><path
             d="M 1580.63,378.134 1050.55,161.285 1638.13,977.22 Z"
             style="fill:#000000;fill-opacity:1;stroke:#231f20;stroke-width:15.2038002;stroke-linecap:round;stroke-linejoin:round;stroke-miterlimit:2.61310005;stroke-dasharray:none;stroke-opacity:1"
             id="path1728"
             inkscape:connector-curvature="0" /></g><g
           id="g1734"
           transform="matrix(0.13337466,0,0,-0.13329146,0,257.33333)"
           style="fill:#000000;fill-opacity:1"><path
             d="m 824.929,1121.79 -93.635,650.57 156.611,-273.81 H 1050.55 L 1198.4,1763.6 1089.98,1113.03 960.191,989.271 Z"
             style="fill:#000000;fill-opacity:1;stroke:#231f20;stroke-width:15.2038002;stroke-linecap:round;stroke-linejoin:round;stroke-miterlimit:2.61310005;stroke-dasharray:none;stroke-opacity:1"
             id="path1732"
             inkscape:connector-curvature="0" /></g><g
           id="g1738"
           transform="matrix(0.13337466,0,0,-0.13329146,0,257.33333)"
           style="fill:#000000;fill-opacity:1"><path
             d="M 861.082,158.546 276.773,986.532 324.961,390.177 Z"
             style="fill:#000000;fill-opacity:1;stroke:#231f20;stroke-width:15.2038002;stroke-linecap:round;stroke-linejoin:round;stroke-miterlimit:2.61310005;stroke-dasharray:none;stroke-opacity:1"
             id="path1736"
             inkscape:connector-curvature="0" /></g><path
           inkscape:connector-curvature="0"
           id="path1740"
           style="fill:#000000;fill-opacity:1;stroke:#231f20;stroke-width:1.52037692;stroke-linecap:round;stroke-linejoin:round;stroke-miterlimit:2.61310005;stroke-dasharray:none;stroke-opacity:1"
           d="m 159.92056,152.819 -37.79671,-11.16849 -1.80756,-11.55137 34.45467,8.86921 -0.87627,-6.89683 -34.83879,-9.47103 -0.54817,-7.28171 34.01754,8.54132 -0.76724,-7.22573 -30.89457,-8.10346 c -3.28702,-0.82074 -6.35497,-2.68216 -9.31189,-5.52826 L 96.213317,89.425012 80.711013,103.98734 c -2.35583,2.13533 -5.039762,3.72283 -8.107313,4.70752 l -30.182353,9.19711 -0.876172,7.22673 32.866285,-9.63497 -1.205473,8.10245 -33.742857,10.23679 -0.876172,6.6779 33.851491,-9.96287 -1.368024,11.4424 -37.633063,11.44041 -12.927706,16.8627 6.902339,-58.41265 67.760699,-96.295052 68.966176,94.488622 8.10651,59.28738 z"
           transform="matrix(1.3333333,0,0,-1.3333333,0,257.33333)" /><g
           id="g1744"
           transform="matrix(0.13337466,0,0,-0.13329146,5.9273024e-4,257.33321)"
           style="fill:#ffffff;fill-opacity:1"><path
             d="M 1041.78,1389.57 H 887.905 l 78.312,-237.66 z"
             style="fill:#ffffff;fill-opacity:1;stroke:#231f20;stroke-width:15.2038002;stroke-linecap:round;stroke-linejoin:round;stroke-miterlimit:2.61310005;stroke-dasharray:none;stroke-opacity:1"
             id="path1742"
             inkscape:connector-curvature="0" /></g><g
           style="fill:#ffffff;fill-opacity:1"
           transform="translate(0.80217068)"
           id="g1754"><g
             style="fill:#ffffff;fill-opacity:1"
             transform="matrix(0.13337466,0,0,-0.13329146,0.00107879,257.33321)"
             id="g1748"><path
               inkscape:connector-curvature="0"
               id="path1746"
               style="fill:#ffffff;fill-opacity:1;stroke:#231f20;stroke-width:15.2038002;stroke-linecap:round;stroke-linejoin:round;stroke-miterlimit:2.61310005;stroke-dasharray:none;stroke-opacity:1"
               d="M 433.388,1010.63 773.457,649.204 879.15,868.8 Z" /></g><g
             style="fill:#ffffff;fill-opacity:1"
             transform="matrix(0.13337466,0,0,-0.13329146,0.00107879,257.33321)"
             id="g1752"><path
               inkscape:connector-curvature="0"
               id="path1750"
               style="fill:#ffffff;fill-opacity:1;stroke:#231f20;stroke-width:15.2038002;stroke-linecap:round;stroke-linejoin:round;stroke-miterlimit:2.61310005;stroke-dasharray:none;stroke-opacity:1"
               d="M 1038.5,862.778 1481.52,995.296 1144.19,649.204 Z" /></g></g></g></g><rect
       rx="23.968685"
       ry="26.139435"
       transform="scale(1,-1)"
       y="-989.82611"
       x="900.17383"
       height="287.65237"
       width="287.65234"
       id="rect1760"
       style="fill:none;fill-opacity:1;stroke:#ff0000;stroke-width:0.34764636;stroke-linecap:butt;stroke-linejoin:miter;stroke-miterlimit:4;stroke-dasharray:none;stroke-opacity:1;paint-order:normal" /><g
       transform="matrix(1.2332305,0,0,-1.2332305,885.52575,1004.8765)"
       inkscape:label="1"
       id="g1800"><g
         id="g1798"><path
           transform="matrix(1.3333333,0,0,-1.3333333,0,257.33333)"
           inkscape:connector-curvature="0"
           id="path1762"
           style="fill:none;fill-opacity:1;fill-rule:evenodd;stroke:none;stroke-width:0.1"
           d="M 32.5063,39.0055 86.1352,15.8496 27.6859,98.6223 32.5063,39.0055" /><path
           transform="matrix(1.3333333,0,0,-1.3333333,0,257.33333)"
           inkscape:connector-curvature="0"
           id="path1764"
           style="fill:none;fill-opacity:1;fill-rule:evenodd;stroke:none;stroke-width:0.1"
           d="m 172.246,169.352 -12.325,-16.532 -37.797,-11.169 -1.807,-11.551 34.454,8.869 -0.876,-6.898 -34.839,-9.471 -0.547,-7.281 34.016,8.541 -0.767,-7.226 -30.894,-8.103 c -3.287,-0.821 -6.355,-2.682 -9.312,-5.528 L 96.2137,89.425 80.7113,103.988 c -2.3558,2.135 -5.0398,3.722 -8.1074,4.707 l -30.1824,9.197 -0.8762,7.227 32.8664,-9.635 -1.2054,8.102 -33.743,10.237 -0.8762,6.678 33.8516,-9.963 -1.368,11.442 -37.6332,11.441 -12.9277,16.863 6.9023,-58.413 67.7609,-96.2952 68.966,94.4882 z M 114.455,64.9 103.883,86.2508 148.199,99.4984 Z M 43.3523,101.031 87.9426,86.8527 77.3699,64.9 43.3523,101.031" /><path
           transform="matrix(1.3333333,0,0,-1.3333333,0,257.33333)"
           inkscape:connector-curvature="0"
           id="path1766"
           style="fill:none;fill-opacity:1;fill-rule:evenodd;stroke:none;stroke-width:0.1"
           d="m 158.113,37.8016 5.751,59.8898 -58.776,-81.568 53.025,21.6782" /><path
           transform="matrix(1.3333333,0,0,-1.3333333,0,257.33333)"
           inkscape:connector-curvature="0"
           id="path1768"
           style="fill:none;fill-opacity:1;fill-rule:evenodd;stroke:none;stroke-width:0.1"
           d="m 82.5188,112.144 13.5304,-13.2479 12.9828,12.3719 10.845,65.036 -14.789,-26.496 H 88.8184 L 73.1523,177.18 Z m 21.6922,26.77 -7.559,-23.759 -7.8336,23.759 h 15.3926" /><g
           style="fill:#000000;fill-opacity:1"
           transform="matrix(0.13337466,0,0,-0.13329146,0,257.33333)"
           id="g1772"><path
             inkscape:connector-curvature="0"
             id="path1770"
             style="fill:#000000;fill-opacity:1;stroke:#231f20;stroke-width:15.2038002;stroke-linecap:round;stroke-linejoin:round;stroke-miterlimit:2.61310005;stroke-dasharray:none;stroke-opacity:1"
             d="M 1580.63,378.134 1050.55,161.285 1638.13,977.22 Z" /></g><g
           style="fill:#000000;fill-opacity:1"
           transform="matrix(0.13337466,0,0,-0.13329146,0,257.33333)"
           id="g1776"><path
             inkscape:connector-curvature="0"
             id="path1774"
             style="fill:#000000;fill-opacity:1;stroke:#231f20;stroke-width:15.2038002;stroke-linecap:round;stroke-linejoin:round;stroke-miterlimit:2.61310005;stroke-dasharray:none;stroke-opacity:1"
             d="m 824.929,1121.79 -93.635,650.57 156.611,-273.81 H 1050.55 L 1198.4,1763.6 1089.98,1113.03 960.191,989.271 Z" /></g><g
           style="fill:#000000;fill-opacity:1"
           transform="matrix(0.13337466,0,0,-0.13329146,0,257.33333)"
           id="g1780"><path
             inkscape:connector-curvature="0"
             id="path1778"
             style="fill:#000000;fill-opacity:1;stroke:#231f20;stroke-width:15.2038002;stroke-linecap:round;stroke-linejoin:round;stroke-miterlimit:2.61310005;stroke-dasharray:none;stroke-opacity:1"
             d="M 861.082,158.546 276.773,986.532 324.961,390.177 Z" /></g><path
           transform="matrix(1.3333333,0,0,-1.3333333,0,257.33333)"
           d="m 159.92056,152.819 -37.79671,-11.16849 -1.80756,-11.55137 34.45467,8.86921 -0.87627,-6.89683 -34.83879,-9.47103 -0.54817,-7.28171 34.01754,8.54132 -0.76724,-7.22573 -30.89457,-8.10346 c -3.28702,-0.82074 -6.35497,-2.68216 -9.31189,-5.52826 L 96.213317,89.425012 80.711013,103.98734 c -2.35583,2.13533 -5.039762,3.72283 -8.107313,4.70752 l -30.182353,9.19711 -0.876172,7.22673 32.866285,-9.63497 -1.205473,8.10245 -33.742857,10.23679 -0.876172,6.6779 33.851491,-9.96287 -1.368024,11.4424 -37.633063,11.44041 -12.927706,16.8627 6.902339,-58.41265 67.760699,-96.295052 68.966176,94.488622 8.10651,59.28738 z"
           style="fill:#000000;fill-opacity:1;stroke:#231f20;stroke-width:1.52037692;stroke-linecap:round;stroke-linejoin:round;stroke-miterlimit:2.61310005;stroke-dasharray:none;stroke-opacity:1"
           id="path1782"
           inkscape:connector-curvature="0" /><g
           style="fill:#ffffff;fill-opacity:1"
           transform="matrix(0.13337466,0,0,-0.13329146,5.9273024e-4,257.33321)"
           id="g1786"><path
             inkscape:connector-curvature="0"
             id="path1784"
             style="fill:#ffffff;fill-opacity:1;stroke:#231f20;stroke-width:15.2038002;stroke-linecap:round;stroke-linejoin:round;stroke-miterlimit:2.61310005;stroke-dasharray:none;stroke-opacity:1"
             d="M 1041.78,1389.57 H 887.905 l 78.312,-237.66 z" /></g><g
           id="g1796"
           transform="translate(0.80217068)"
           style="fill:#ffffff;fill-opacity:1"><g
             id="g1790"
             transform="matrix(0.13337466,0,0,-0.13329146,0.00107879,257.33321)"
             style="fill:#ffffff;fill-opacity:1"><path
               d="M 433.388,1010.63 773.457,649.204 879.15,868.8 Z"
               style="fill:#ffffff;fill-opacity:1;stroke:#231f20;stroke-width:15.2038002;stroke-linecap:round;stroke-linejoin:round;stroke-miterlimit:2.61310005;stroke-dasharray:none;stroke-opacity:1"
               id="path1788"
               inkscape:connector-curvature="0" /></g><g
             id="g1794"
             transform="matrix(0.13337466,0,0,-0.13329146,0.00107879,257.33321)"
             style="fill:#ffffff;fill-opacity:1"><path
               d="M 1038.5,862.778 1481.52,995.296 1144.19,649.204 Z"
               style="fill:#ffffff;fill-opacity:1;stroke:#231f20;stroke-width:15.2038002;stroke-linecap:round;stroke-linejoin:round;stroke-miterlimit:2.61310005;stroke-dasharray:none;stroke-opacity:1"
               id="path1792"
               inkscape:connector-curvature="0" /></g></g></g></g></g></svg>