<?xml version="1.0" encoding="UTF-8" standalone="no"?>
<!-- Created with Inkscape (http://www.inkscape.org/) -->

<svg
   xmlns:dc="http://purl.org/dc/elements/1.1/"
   xmlns:cc="http://creativecommons.org/ns#"
   xmlns:rdf="http://www.w3.org/1999/02/22-rdf-syntax-ns#"
   xmlns:svg="http://www.w3.org/2000/svg"
   xmlns="http://www.w3.org/2000/svg"
   xmlns:sodipodi="http://sodipodi.sourceforge.net/DTD/sodipodi-0.dtd"
   xmlns:inkscape="http://www.inkscape.org/namespaces/inkscape"
   version="1.1"
   id="svg857"
   xml:space="preserve"
   width="257.33334"
   height="257.33334"
   viewBox="0 0 257.33334 257.33334"
   sodipodi:docname="Decepticon.svg"
   inkscape:version="0.92.2 (5c3e80d, 2017-08-06)"><metadata
     id="metadata863"><rdf:RDF><cc:Work
         rdf:about=""><dc:format>image/svg+xml</dc:format><dc:type
           rdf:resource="http://purl.org/dc/dcmitype/StillImage" /><dc:title></dc:title></cc:Work></rdf:RDF></metadata><defs
     id="defs861" /><sodipodi:namedview
     pagecolor="#ffffff"
     bordercolor="#666666"
     borderopacity="1"
     objecttolerance="10"
     gridtolerance="10"
     guidetolerance="10"
     inkscape:pageopacity="0"
     inkscape:pageshadow="2"
     inkscape:window-width="1280"
     inkscape:window-height="777"
     id="namedview859"
     showgrid="false"
     inkscape:zoom="1.8341968"
     inkscape:cx="129.81987"
     inkscape:cy="121.97818"
     inkscape:window-x="-8"
     inkscape:window-y="-8"
     inkscape:window-maximized="1"
     inkscape:current-layer="layer1" /><g
     id="g865"
     inkscape:groupmode="layer"
     inkscape:label="ink_ext_XXXXXX"
     transform="matrix(1.3333333,0,0,-1.3333333,0,257.33333)" /><g
     inkscape:groupmode="layer"
     id="layer1"
     inkscape:label="1"><g
       id="g1574"
       transform="translate(0.16332249,-0.16288721)"><path
         d="M 32.5063,39.0055 86.1352,15.8496 27.6859,98.6223 32.5063,39.0055"
         style="fill:none;fill-opacity:1;fill-rule:evenodd;stroke:none;stroke-width:0.1"
         id="path871"
         inkscape:connector-curvature="0"
         transform="matrix(1.3333333,0,0,-1.3333333,0,257.33333)" /><path
         d="m 172.246,169.352 -12.325,-16.532 -37.797,-11.169 -1.807,-11.551 34.454,8.869 -0.876,-6.898 -34.839,-9.471 -0.547,-7.281 34.016,8.541 -0.767,-7.226 -30.894,-8.103 c -3.287,-0.821 -6.355,-2.682 -9.312,-5.528 L 96.2137,89.425 80.7113,103.988 c -2.3558,2.135 -5.0398,3.722 -8.1074,4.707 l -30.1824,9.197 -0.8762,7.227 32.8664,-9.635 -1.2054,8.102 -33.743,10.237 -0.8762,6.678 33.8516,-9.963 -1.368,11.442 -37.6332,11.441 -12.9277,16.863 6.9023,-58.413 67.7609,-96.2952 68.966,94.4882 z M 114.455,64.9 103.883,86.2508 148.199,99.4984 Z M 43.3523,101.031 87.9426,86.8527 77.3699,64.9 43.3523,101.031"
         style="fill:none;fill-opacity:1;fill-rule:evenodd;stroke:none;stroke-width:0.1"
         id="path873"
         inkscape:connector-curvature="0"
         transform="matrix(1.3333333,0,0,-1.3333333,0,257.33333)" /><path
         d="m 158.113,37.8016 5.751,59.8898 -58.776,-81.568 53.025,21.6782"
         style="fill:none;fill-opacity:1;fill-rule:evenodd;stroke:none;stroke-width:0.1"
         id="path875"
         inkscape:connector-curvature="0"
         transform="matrix(1.3333333,0,0,-1.3333333,0,257.33333)" /><path
         d="m 82.5188,112.144 13.5304,-13.2479 12.9828,12.3719 10.845,65.036 -14.789,-26.496 H 88.8184 L 73.1523,177.18 Z m 21.6922,26.77 -7.559,-23.759 -7.8336,23.759 h 15.3926"
         style="fill:none;fill-opacity:1;fill-rule:evenodd;stroke:none;stroke-width:0.1"
         id="path877"
         inkscape:connector-curvature="0"
         transform="matrix(1.3333333,0,0,-1.3333333,0,257.33333)" /><g
         id="g879"
         transform="matrix(0.13337466,0,0,-0.13329146,0,257.33333)"
         style="fill:#000000;fill-opacity:1"><path
           d="M 1580.63,378.134 1050.55,161.285 1638.13,977.22 Z"
           style="fill:#000000;fill-opacity:1;stroke:#231f20;stroke-width:15.2038002;stroke-linecap:round;stroke-linejoin:round;stroke-miterlimit:2.61310005;stroke-dasharray:none;stroke-opacity:1"
           id="path881"
           inkscape:connector-curvature="0" /></g><g
         id="g887"
         transform="matrix(0.13337466,0,0,-0.13329146,0,257.33333)"
         style="fill:#000000;fill-opacity:1"><path
           d="m 824.929,1121.79 -93.635,650.57 156.611,-273.81 H 1050.55 L 1198.4,1763.6 1089.98,1113.03 960.191,989.271 Z"
           style="fill:#000000;fill-opacity:1;stroke:#231f20;stroke-width:15.2038002;stroke-linecap:round;stroke-linejoin:round;stroke-miterlimit:2.61310005;stroke-dasharray:none;stroke-opacity:1"
           id="path889"
           inkscape:connector-curvature="0" /></g><g
         id="g895"
         transform="matrix(0.13337466,0,0,-0.13329146,0,257.33333)"
         style="fill:#000000;fill-opacity:1"><path
           d="M 861.082,158.546 276.773,986.532 324.961,390.177 Z"
           style="fill:#000000;fill-opacity:1;stroke:#231f20;stroke-width:15.2038002;stroke-linecap:round;stroke-linejoin:round;stroke-miterlimit:2.61310005;stroke-dasharray:none;stroke-opacity:1"
           id="path897"
           inkscape:connector-curvature="0" /></g><path
         inkscape:connector-curvature="0"
         id="path905"
         style="fill:#000000;fill-opacity:1;stroke:#231f20;stroke-width:1.52037692;stroke-linecap:round;stroke-linejoin:round;stroke-miterlimit:2.61310005;stroke-dasharray:none;stroke-opacity:1"
         d="m 159.92056,152.819 -37.79671,-11.16849 -1.80756,-11.55137 34.45467,8.86921 -0.87627,-6.89683 -34.83879,-9.47103 -0.54817,-7.28171 34.01754,8.54132 -0.76724,-7.22573 -30.89457,-8.10346 c -3.28702,-0.82074 -6.35497,-2.68216 -9.31189,-5.52826 L 96.213317,89.425012 80.711013,103.98734 c -2.35583,2.13533 -5.039762,3.72283 -8.107313,4.70752 l -30.182353,9.19711 -0.876172,7.22673 32.866285,-9.63497 -1.205473,8.10245 -33.742857,10.23679 -0.876172,6.6779 33.851491,-9.96287 -1.368024,11.4424 -37.633063,11.44041 -12.927706,16.8627 6.902339,-58.41265 67.760699,-96.295052 68.966176,94.488622 8.10651,59.28738 z"
         transform="matrix(1.3333333,0,0,-1.3333333,0,257.33333)" /><g
         id="g883"
         transform="matrix(0.13337466,0,0,-0.13329146,5.9273024e-4,257.33321)"
         style="fill:#ffffff;fill-opacity:1"><path
           d="M 1041.78,1389.57 H 887.905 l 78.312,-237.66 z"
           style="fill:#ffffff;fill-opacity:1;stroke:#231f20;stroke-width:15.2038002;stroke-linecap:round;stroke-linejoin:round;stroke-miterlimit:2.61310005;stroke-dasharray:none;stroke-opacity:1"
           id="path885"
           inkscape:connector-curvature="0" /></g><g
         style="fill:#ffffff;fill-opacity:1"
         transform="translate(0.80217068)"
         id="g1543"><g
           style="fill:#ffffff;fill-opacity:1"
           transform="matrix(0.13337466,0,0,-0.13329146,0.00107879,257.33321)"
           id="g891"><path
             inkscape:connector-curvature="0"
             id="path893"
             style="fill:#ffffff;fill-opacity:1;stroke:#231f20;stroke-width:15.2038002;stroke-linecap:round;stroke-linejoin:round;stroke-miterlimit:2.61310005;stroke-dasharray:none;stroke-opacity:1"
             d="M 433.388,1010.63 773.457,649.204 879.15,868.8 Z" /></g><g
           style="fill:#ffffff;fill-opacity:1"
           transform="matrix(0.13337466,0,0,-0.13329146,0.00107879,257.33321)"
           id="g899"><path
             inkscape:connector-curvature="0"
             id="path901"
             style="fill:#ffffff;fill-opacity:1;stroke:#231f20;stroke-width:15.2038002;stroke-linecap:round;stroke-linejoin:round;stroke-miterlimit:2.61310005;stroke-dasharray:none;stroke-opacity:1"
             d="M 1038.5,862.778 1481.52,995.296 1144.19,649.204 Z" /></g></g></g></g></svg>